<svg xmlns="http://www.w3.org/2000/svg" viewBox="0 0 512 512" version="1.1">
  <!-- Outer circle representing the flag boundary -->
  <circle cx="256" cy="256" r="256" fill="#ffffff"/>

  <!-- Saffron band (top third) -->
  <rect width="512" height="170.67" y="0" fill="#FF9933"/>

  <!-- Green band (bottom third) -->
  <rect width="512" height="170.67" y="341.33" fill="#138808"/>

  <!-- Ashoka Chakra -->
  <circle cx="256" cy="256" r="60" fill="#000080"/>

  <!-- Ashoka Chakra spokes -->
  <g transform="translate(256 256)">
    <g id="spokes" fill="#ffffff">
      <!-- 24 spokes of Ashoka Chakra -->
      <path d="M0-60L4-56 0-40 -4-56z" transform="rotate(0)"/>
      <path d="M0-60L4-56 0-40 -4-56z" transform="rotate(15)"/>
      <path d="M0-60L4-56 0-40 -4-56z" transform="rotate(30)"/>
      <path d="M0-60L4-56 0-40 -4-56z" transform="rotate(45)"/>
      <path d="M0-60L4-56 0-40 -4-56z" transform="rotate(60)"/>
      <path d="M0-60L4-56 0-40 -4-56z" transform="rotate(75)"/>
      <path d="M0-60L4-56 0-40 -4-56z" transform="rotate(90)"/>
      <path d="M0-60L4-56 0-40 -4-56z" transform="rotate(105)"/>
      <path d="M0-60L4-56 0-40 -4-56z" transform="rotate(120)"/>
      <path d="M0-60L4-56 0-40 -4-56z" transform="rotate(135)"/>
      <path d="M0-60L4-56 0-40 -4-56z" transform="rotate(150)"/>
      <path d="M0-60L4-56 0-40 -4-56z" transform="rotate(165)"/>
      <path d="M0-60L4-56 0-40 -4-56z" transform="rotate(180)"/>
      <path d="M0-60L4-56 0-40 -4-56z" transform="rotate(195)"/>
      <path d="M0-60L4-56 0-40 -4-56z" transform="rotate(210)"/>
      <path d="M0-60L4-56 0-40 -4-56z" transform="rotate(225)"/>
      <path d="M0-60L4-56 0-40 -4-56z" transform="rotate(240)"/>
      <path d="M0-60L4-56 0-40 -4-56z" transform="rotate(255)"/>
      <path d="M0-60L4-56 0-40 -4-56z" transform="rotate(270)"/>
      <path d="M0-60L4-56 0-40 -4-56z" transform="rotate(285)"/>
      <path d="M0-60L4-56 0-40 -4-56z" transform="rotate(300)"/>
      <path d="M0-60L4-56 0-40 -4-56z" transform="rotate(315)"/>
      <path d="M0-60L4-56 0-40 -4-56z" transform="rotate(330)"/>
      <path d="M0-60L4-56 0-40 -4-56z" transform="rotate(345)"/>
    </g>
  </g>
</svg>
